<svg width="19" height="23" id="logo" viewBox="0 0 19 23" fill="none" xmlns="http://www.w3.org/2000/svg">
<path fill-rule="evenodd" clip-rule="evenodd" d="M14.0686 3.08869C12.4052 2.69093 10.7419 1.89542 9.49437 0.702148C8.24686 1.89542 6.58351 2.69093 4.92017 3.08869C5.336 6.6685 6.58351 9.05504 9.49437 11.0438C12.4052 9.05504 14.0686 6.6685 14.0686 3.08869Z" fill="#FFB627"/>
<path fill-rule="evenodd" clip-rule="evenodd" d="M12.4051 17.8989L0.761719 4.77295V11.1371L9.91012 21.081L12.4051 17.8989Z" fill="#FBFBFB"/>
<path fill-rule="evenodd" clip-rule="evenodd" d="M13.653 16.7058L18.6431 11.1372V5.1709L10.7422 13.9215L13.653 16.7058Z" fill="#FBFBFB"/>
<path fill-rule="evenodd" clip-rule="evenodd" d="M14.0688 18.6945V22.2743L18.643 17.1035V13.5237L14.0688 18.6945Z" fill="#FBFBFB"/>
<path fill-rule="evenodd" clip-rule="evenodd" d="M5.33592 18.6945L0.761719 13.5237V17.1035L5.33592 22.2743V18.6945Z" fill="#FBFBFB"/>
</svg>
